<svg id="Layer1" xmlns="http://www.w3.org/2000/svg" width="437.16" height="433.12" viewBox="0 0 437.16 433.12">
  <defs>
    <style>
      .cls-1 {
        fill: #c5a47e;
      }
    </style>
  </defs>
  <g>
    <path class="cls-1" d="M136.25,458.92a10.3,10.3,0,0,1-3.76-.68,9,9,0,0,1-5-4.89,9.89,9.89,0,0,1,0-7.31,8.84,8.84,0,0,1,2-2.94,9.08,9.08,0,0,1,3-2,10.59,10.59,0,0,1,7.52,0,8.95,8.95,0,0,1,5,4.87,9.87,9.87,0,0,1,0,7.35,8.95,8.95,0,0,1-5,4.87A10.3,10.3,0,0,1,136.25,458.92Zm0-1.22a8.55,8.55,0,0,0,3.23-.6,7.56,7.56,0,0,0,2.57-1.69,7.76,7.76,0,0,0,1.7-2.54,8.57,8.57,0,0,0,0-6.35,7.71,7.71,0,0,0-4.27-4.24,9.11,9.11,0,0,0-6.45,0,8,8,0,0,0-2.59,1.69,7.81,7.81,0,0,0-1.72,2.55,8.57,8.57,0,0,0,0,6.35A7.8,7.8,0,0,0,133,457.1,8.5,8.5,0,0,0,136.25,457.7Zm6,4.55a5.52,5.52,0,0,1-1.52-.21,6.84,6.84,0,0,1-1.51-.63,9.73,9.73,0,0,1-1.56-1.12c-.53-.46-1.09-1-1.7-1.65l1.51-.37a11.9,11.9,0,0,0,1.65,1.62,5.85,5.85,0,0,0,1.6.94,4.24,4.24,0,0,0,1.53.3,4.51,4.51,0,0,0,3.59-1.74l.7.81A5.27,5.27,0,0,1,142.23,462.25Z" transform="translate(-34.78 -29.13)"/>
    <path class="cls-1" d="M157.44,458.92a7.14,7.14,0,0,1-5.33-2q-2-2-2-5.88V440.59h1.33V451a7.08,7.08,0,0,0,1.56,5,6.74,6.74,0,0,0,8.81,0,7.08,7.08,0,0,0,1.56-5V440.59h1.33v10.48q0,3.9-1.95,5.88A7.18,7.18,0,0,1,157.44,458.92Z" transform="translate(-34.78 -29.13)"/>
    <path class="cls-1" d="M167.5,458.79l8.38-18.2h1.32l8.37,18.2h-1.43l-7.9-17.36h.57l-7.88,17.36Zm3.07-5.12.44-1.12h10.9l.44,1.12Z" transform="translate(-34.78 -29.13)"/>
    <path class="cls-1" d="M188.87,458.79v-18.2h1.33v17h10.48v1.19Z" transform="translate(-34.78 -29.13)"/>
    <path class="cls-1" d="M204.08,458.79v-18.2h1.33v18.2Z" transform="translate(-34.78 -29.13)"/>
    <path class="cls-1" d="M215.24,458.79v-17h-6.55v-1.2h14.43v1.2h-6.56v17Z" transform="translate(-34.78 -29.13)"/>
    <path class="cls-1" d="M230.6,458.79v-6.6l.32.86-7.65-12.46h1.46l6.94,11.31h-.73l6.94-11.31h1.38l-7.64,12.46.31-.86v6.6Z" transform="translate(-34.78 -29.13)"/>
    <path class="cls-1" d="M249.25,458.79v-18.2h1.32v18.2Z" transform="translate(-34.78 -29.13)"/>
    <path class="cls-1" d="M256.92,458.79v-18.2H258l13,16.57h-.6V440.59h1.33v18.2h-1.1l-13-16.56h.6v16.56Z" transform="translate(-34.78 -29.13)"/>
    <path class="cls-1" d="M288.82,458.79l-6.19-18.2H284l5.88,17.4h-.7l6.05-17.4h1.28l6,17.4h-.67l5.93-17.4h1.3l-6.17,18.2h-1.4L295.71,442H296l-5.82,16.82Z" transform="translate(-34.78 -29.13)"/>
    <path class="cls-1" d="M320.48,458.92a10.2,10.2,0,0,1-3.75-.68,8.94,8.94,0,0,1-5-4.89,9.89,9.89,0,0,1,0-7.31,8.84,8.84,0,0,1,2-2.94,9.13,9.13,0,0,1,3-2,10.56,10.56,0,0,1,7.51,0,9.11,9.11,0,0,1,3,1.94,9,9,0,0,1,2,2.93,9.74,9.74,0,0,1,0,7.35,9,9,0,0,1-2,2.93,9.11,9.11,0,0,1-3,1.94A10.22,10.22,0,0,1,320.48,458.92Zm0-1.22a8.52,8.52,0,0,0,3.23-.6,7.47,7.47,0,0,0,2.57-1.69,7.79,7.79,0,0,0,1.71-2.54,8.59,8.59,0,0,0,0-6.36,8,8,0,0,0-1.71-2.54,7.76,7.76,0,0,0-2.57-1.69,9.11,9.11,0,0,0-6.45,0,7.82,7.82,0,0,0-4.91,7.41,8.08,8.08,0,0,0,.61,3.18,7.79,7.79,0,0,0,1.71,2.54,7.64,7.64,0,0,0,2.59,1.69A8.5,8.5,0,0,0,320.48,457.7Z" transform="translate(-34.78 -29.13)"/>
    <path class="cls-1" d="M342.27,458.92a10.2,10.2,0,0,1-3.75-.68,8.94,8.94,0,0,1-5-4.89,9.89,9.89,0,0,1,0-7.31,8.84,8.84,0,0,1,2-2.94,9,9,0,0,1,3-2,10.56,10.56,0,0,1,7.51,0,8.95,8.95,0,0,1,5,4.87,9.74,9.74,0,0,1,0,7.35,8.95,8.95,0,0,1-5,4.87A10.26,10.26,0,0,1,342.27,458.92Zm0-1.22a8.55,8.55,0,0,0,3.23-.6,7.47,7.47,0,0,0,2.57-1.69,7.61,7.61,0,0,0,1.7-2.54,8.59,8.59,0,0,0,0-6.36,7.73,7.73,0,0,0-4.27-4.23,9.11,9.11,0,0,0-6.45,0,8,8,0,0,0-2.59,1.69,7.69,7.69,0,0,0-1.71,2.54,8.47,8.47,0,0,0,0,6.36,7.49,7.49,0,0,0,1.71,2.54,7.64,7.64,0,0,0,2.59,1.69A8.5,8.5,0,0,0,342.27,457.7Z" transform="translate(-34.78 -29.13)"/>
    <path class="cls-1" d="M356.34,458.79v-18.2h7.2a10.57,10.57,0,0,1,5.07,1.17A8.45,8.45,0,0,1,372,445a9.75,9.75,0,0,1,0,9.41,8.42,8.42,0,0,1-3.39,3.22,10.57,10.57,0,0,1-5.07,1.17Zm1.33-1.19h5.77a9.33,9.33,0,0,0,4.47-1,7.32,7.32,0,0,0,2.94-2.79,8.58,8.58,0,0,0,0-8.19,7.41,7.41,0,0,0-2.94-2.8,9.45,9.45,0,0,0-4.47-1h-5.77Z" transform="translate(-34.78 -29.13)"/>
  </g>
  <g>
    <path class="cls-1" d="M34.78,422.17v-42h3.66l19.2,32.76H55.72l19-32.76H78.4v42H74.14V386.83h1l-17.52,30h-2.1l-17.64-30H39v35.34Z" transform="translate(-34.78 -29.13)"/>
    <path class="cls-1" d="M92.08,422.17v-42h4.44v42Z" transform="translate(-34.78 -29.13)"/>
    <path class="cls-1" d="M110.2,422.17v-42h4.44v38.16h23.52v3.84Z" transform="translate(-34.78 -29.13)"/>
    <path class="cls-1" d="M145.54,422.17v-42H150v38.16H173.5v3.84Z" transform="translate(-34.78 -29.13)"/>
    <path class="cls-1" d="M187.24,422.17l-14.16-42h4.56l13.26,39.54h-2.28l13.68-39.54h4.08l13.5,39.54h-2.16l13.38-39.54h4.26l-14.16,42h-4.68l-12.9-37.5h1.2l-13,37.5Z" transform="translate(-34.78 -29.13)"/>
    <path class="cls-1" d="M261.46,422.53a23.84,23.84,0,0,1-8.79-1.59A20.68,20.68,0,0,1,241,409.66a22.67,22.67,0,0,1,0-17,20.75,20.75,0,0,1,11.61-11.28,25.09,25.09,0,0,1,17.58,0,21,21,0,0,1,7,4.47,20.42,20.42,0,0,1,4.62,6.78,22.82,22.82,0,0,1,0,17,20.42,20.42,0,0,1-4.62,6.78,21,21,0,0,1-7,4.47A23.61,23.61,0,0,1,261.46,422.53Zm0-4a18.57,18.57,0,0,0,7-1.29,16.5,16.5,0,0,0,5.58-3.66,17,17,0,0,0,3.69-5.52,18.85,18.85,0,0,0,0-13.86,17,17,0,0,0-3.69-5.52,16.5,16.5,0,0,0-5.58-3.66,18.57,18.57,0,0,0-7-1.29,18.81,18.81,0,0,0-7,1.29,16.75,16.75,0,0,0-9.36,9.18,18.77,18.77,0,0,0,0,13.83,16.68,16.68,0,0,0,9.36,9.21A18.81,18.81,0,0,0,261.46,418.57Z" transform="translate(-34.78 -29.13)"/>
    <path class="cls-1" d="M311.8,422.53a23.84,23.84,0,0,1-8.79-1.59,20.68,20.68,0,0,1-11.64-11.28,22.67,22.67,0,0,1,0-17A20.75,20.75,0,0,1,303,381.4a25.09,25.09,0,0,1,17.58,0,21,21,0,0,1,7,4.47,20.42,20.42,0,0,1,4.62,6.78,22.82,22.82,0,0,1,0,17,20.42,20.42,0,0,1-4.62,6.78,21,21,0,0,1-7,4.47A23.61,23.61,0,0,1,311.8,422.53Zm0-4a18.57,18.57,0,0,0,7-1.29,16.5,16.5,0,0,0,5.58-3.66,17,17,0,0,0,3.69-5.52,18.85,18.85,0,0,0,0-13.86,17,17,0,0,0-3.69-5.52,16.5,16.5,0,0,0-5.58-3.66,18.57,18.57,0,0,0-7-1.29,18.81,18.81,0,0,0-7,1.29,16.75,16.75,0,0,0-9.36,9.18,18.77,18.77,0,0,0,0,13.83,16.68,16.68,0,0,0,9.36,9.21A18.81,18.81,0,0,0,311.8,418.57Z" transform="translate(-34.78 -29.13)"/>
    <path class="cls-1" d="M343.78,422.17v-42h17.1a24.94,24.94,0,0,1,11.79,2.67,19.59,19.59,0,0,1,7.89,7.41,22.55,22.55,0,0,1,0,21.84,19.59,19.59,0,0,1-7.89,7.41,24.94,24.94,0,0,1-11.79,2.67Zm4.44-3.84h12.42a20.32,20.32,0,0,0,9.69-2.19,16,16,0,0,0,6.39-6.06,18.61,18.61,0,0,0,0-17.85,16,16,0,0,0-6.39-6,20.32,20.32,0,0,0-9.69-2.19H348.22Z" transform="translate(-34.78 -29.13)"/>
    <path class="cls-1" d="M391.66,422.47a3,3,0,0,1-2.25-1,3.24,3.24,0,0,1-.93-2.34,3.18,3.18,0,1,1,6.36,0,3.24,3.24,0,0,1-.93,2.34A3,3,0,0,1,391.66,422.47Z" transform="translate(-34.78 -29.13)"/>
    <path class="cls-1" d="M404.86,422.17v-42h4.44v38.16h23.52v3.84Z" transform="translate(-34.78 -29.13)"/>
    <path class="cls-1" d="M449,422.17l-18.6-42h4.8l17.4,39.54h-2.64l17.52-39.54h4.5l-18.6,42Z" transform="translate(-34.78 -29.13)"/>
  </g>
  <g>
    <path class="cls-1" d="M244.68,32c-.94,1.5-1,2.38-1.2,42-.1,21.25-.28,39.08-.33,39.63s-.26,2.52-.41,4.37a152.14,152.14,0,0,1-3.23,20.55c-1.28,5.45-4.91,18.38-7.72,27.45-2,6.5-2.77,7.9-7.27,13.68a48.93,48.93,0,0,0-7,13.82c-1.56,4.65-1.84,5.93-.64,3a100.35,100.35,0,0,1,5.55-10.87c2.79-4.68,6.27-10.08,6.07-9.38a97.8,97.8,0,0,1-5.27,11.13c-6.76,12.52-8.39,16.25-10.67,24.38-4.32,15.47-6.63,30.5-8,52.87-.46,7.33-.36,85.88.12,86.18s1.23.22,2.36-.3,2.2-2.1,2.81-4.53c.54-2.07.74-8.32.44-13-.18-3,0-8,1-30,.7-14.5,1.36-30.83,1.51-36.25.52-19.43.8-26.78,1.18-31.9,1.08-14.78,3.58-26,8.06-36.43.69-1.63,2.89-6.23,4.89-10.25,6-12.08,7.08-14.63,9.26-21.05a262,262,0,0,0,8.57-37c1.71-12.28,1.89-18.33,1.69-55.38-.16-29-.16-32,.25-35.77.49-4.5.39-6.23-.41-7C245.65,31.29,245.14,31.32,244.68,32Z" transform="translate(-34.78 -29.13)"/>
    <path class="cls-1" d="M216.26,31.92a2.08,2.08,0,0,1-1.08.1c-.46-.1-.59,0-.59.32a5.6,5.6,0,0,1-.38,1.48,14.55,14.55,0,0,0-.38,3.82c0,4.15-1.26,14.2-3.2,25.93-1.36,8.17-2.41,13-5.89,27.12-1.07,4.33-2.09,8.6-2.3,9.5-.59,2.58-4.53,13.78-6.24,17.7a119.08,119.08,0,0,1-14.12,24.3c-1.26,1.63-3.71,3.83-4.53,4.05-.54.15-8.78-9.22-13.13-14.92-7.9-10.4-14-21.08-16.65-29.38a274.41,274.41,0,0,1-8.49-32.75c-1.87-9.2-2.15-11.45-2.46-19.25-.36-9.25-.92-13.07-2.33-15.77-.59-1.15-1.87-2.23-2.66-2.23-.56,0-.59.1-.77,2.68-.38,5.35.46,22.2,1.56,31.2,4.66,38.47,19.22,73,43.42,102.7l1.79,2.2.9-1.3c15.17-22,25.2-48.85,32.28-86.35,2.1-11.08,8.16-50.73,7.83-51.08A5.26,5.26,0,0,0,216.26,31.92Z" transform="translate(-34.78 -29.13)"/>
    <path class="cls-1" d="M272.24,31.87c-.64.25-.39,32.3.53,66.95.23,8.1.51,20.2.67,26.87.36,16.18.94,22.1,3.07,30.93,1.74,7.1,3.94,12.32,8.59,20.22,11.59,19.73,17.66,39.81,20,66.11.87,10.12.74,28.87-.28,42.12-1,12.15-1.64,17.8-3.46,29.13-2.32,14.52-3.4,19.32-5.62,25.62a53.12,53.12,0,0,1-4.84,9.95,12.73,12.73,0,0,0-.79,1.23,22.57,22.57,0,0,0,5-.73c1.58-.87,3.35-3.37,4.63-6.57,4.12-10.48,6.52-29.15,7.54-59.13.34-9.67.16-42.95-.25-50.37-.74-13-1.41-20.35-2.18-23.93-1-4.55-3.48-10.8-9.41-23.58-7.09-15.27-9.34-20.95-10.82-27.37-.39-1.65-.85-3.4-1-3.88-.84-2.1-2.68-14.05-3.45-22.25-.84-9.3-1-13.52-1.25-33.37-.31-22.15-.41-27.2-.95-44.83-.28-9.45-.33-13.85-.15-15.87.51-5.55-.41-7.45-3.64-7.4A8,8,0,0,0,272.24,31.87Z" transform="translate(-34.78 -29.13)"/>
    <path class="cls-1" d="M324.93,31.87,324,32l-.12,42.92c-.13,43.9.07,80.7.56,98.3.43,16.58.56,19.33,2.66,57.51.95,17.07,1.15,21.92,1.43,34.25.26,11.47,0,30.95-.46,31.22a17.53,17.53,0,0,0-.41,3.78c-.15,3.65-.69,9.17-1.69,17.25a91.21,91.21,0,0,1-4.22,20.25c-2.25,7.4-3,10.52-2.89,12l.08,1.12,1.51.08a15,15,0,0,0,5.91-.9c1.43-.83,1.58-1.4,1.89-7.68.15-3.17.46-8.67.67-12.25,2.25-38.45,2.6-75.15,1.27-135.75-.43-20-.79-51.78-1.15-101.63-.33-47.2-.35-54-.12-56.15C329.28,32.82,328.13,31.54,324.93,31.87Z" transform="translate(-34.78 -29.13)"/>
    <path class="cls-1" d="M355.84,31.87l-.61.12.18,2.65c.64,10.65.77,16,.79,31.55,0,17.15-.13,20.83-1.05,33.13-.94,12.75-1.86,18.52-6.24,38.75-1.25,5.77-2.66,12.47-3.12,14.87a23.65,23.65,0,0,1-.92,4c-.21-1.07,4.5-25.85,6.37-33.47.77-3.15.92-4.15.46-3S348,134.59,347,139.32a233.07,233.07,0,0,0-4.76,33c-.72,10.67-1,40-.51,51.45.79,18,2.07,31,5.37,53.8,2.2,15.18,3.22,23.68,4,32.88.56,6.57.64,23.52.16,27.62a76.23,76.23,0,0,1-2.51,12.68c-.13.42.2.45,4.5.45,7.16,0,7.24-.08,7.39-6.13.13-6.62-.53-22.6-1.4-33.25-.87-10.85-1.51-15.07-5-33.75-4-21.6-5.22-28.82-6.49-38.25a264.69,264.69,0,0,1-2.61-43.38c.3-19.37,1.66-32.25,5.78-54.87a385.87,385.87,0,0,0,5.47-40.88c.85-9.37,3.07-38.7,3.61-47.3.21-3.37.56-7.42.79-9a48.94,48.94,0,0,0,.44-5.85c0-2.73,0-3.13-.67-4.45s-.84-1.53-1.76-1.93A4.37,4.37,0,0,0,355.84,31.87Zm-11.1,126.62c-.08.2-.15.13-.15-.15s.05-.42.13-.32A.5.5,0,0,1,344.74,158.49Z" transform="translate(-34.78 -29.13)"/>
    <path class="cls-1" d="M99.15,32.46a4.41,4.41,0,0,0-2.13,3c-.35,1.67-.35,2.57.11,7.62.2,2.33.48,7.18.64,10.75a424.79,424.79,0,0,0,5.22,47.5c3.47,21.53,9.41,39.21,22.53,67.13a220.79,220.79,0,0,1,10,24.13c6.78,19.82,10.95,41.1,13.38,68.25,1,11.3,1.43,18.22,2.71,44,.74,15,.87,19.62.82,27.87-.05,8.43,0,10.16.38,11.76,1.15,5.1,2.66,7,5.53,7h1.25l.18-3.58a525.33,525.33,0,0,0-.87-60.55,496.59,496.59,0,0,0-14.09-84.73c-3.28-12.55-6-18.7-16.53-37.65-8.91-16-12-22.37-14.53-30-6-17.9-10.16-40.5-12.13-65.13a216.26,216.26,0,0,1-.95-27.07l.16-10.55-.57,0A3.29,3.29,0,0,0,99.15,32.46Z" transform="translate(-34.78 -29.13)"/>
    <path class="cls-1" d="M117.48,33.24c.07.73.2,3.08.28,5.2.43,11.05,1.92,29.4,3.09,38.38,2.28,17.5,7,36.82,13.85,57.25,4.78,14.22,7.36,20.27,17.6,41.25,13.94,28.6,17.37,37.6,19.67,51.65,1.26,7.73,1.66,14.73,1.92,34.35.13,8.8.51,27.5.82,41.55.56,24.63.56,25.73.15,30.5-.94,10.53-.36,14.45,2.46,16.68.89.7,1.2.77,3,.85l2,.1.18-9.6c.08-5.3,0-20.18-.13-33.1-.48-39.28-.05-56.58,2-76.35a230.47,230.47,0,0,1,11.23-52.71c2.05-5.92,3.51-9.3,8.58-19.92,2.5-5.23,5-10.58,5.57-11.88,4.66-10.75,7.11-20.1,11.8-45.25,3.25-17.5,5-32.32,6.8-58.87.77-11.3.77-11.13.18-11.13s-1.74,1.23-2.2,2.55c-.72,2.1-.95,5.4-.89,12.8,0,7.8,0,8.58-1.82,22a335.67,335.67,0,0,1-12.66,56.5c-4,12.87-6,17.92-15.41,39.75-2,4.52-3.83,8.9-4.17,9.67a4.54,4.54,0,0,1-.69,1.35c-.07-.07,1.87-5.2,4.35-11.4.64-1.57,3.25-7.92,5.81-14.1s4.58-11.25,4.53-11.3a17.16,17.16,0,0,0-1.41,2.83c-.72,1.62-2.86,6.27-4.78,10.32-8.57,18.08-11.34,24.8-14.36,34.95a246.76,246.76,0,0,0-6.39,28.13,10.69,10.69,0,0,1-.62,2.75,9,9,0,0,1-.61-1.82c-.79-2.88-2.74-8.53-4.17-12.13-.77-1.93-2.12-5.43-3-7.75-5-13.15-10-23.28-14.68-29.23-2-2.57-8.91-16.25-12.39-24.52-2.33-5.58-6.7-19.45-9.28-29.48-5.35-20.82-9.34-46.37-12.21-78.52l-.31-3.5L119.22,32l-1.9-.07Zm32.18,126.7c.82,1.45,1.2,2.3.87,1.9a32.47,32.47,0,0,1-3-5.3c0-.12.16,0,.31.28S148.82,158.49,149.66,159.94Z" transform="translate(-34.78 -29.13)"/>
    <path class="cls-1" d="M140,32.37c0,.25.18,1.75.28,3.32,1.69,29.63,8.11,54.3,19,73,4.3,7.38,11.23,16.43,16.25,21.2l1.12,1.08,2.31-2.08c15-13.52,23.51-33.2,27.42-63.2,1.08-8.17,3.28-33.15,3-33.45s-1,.3-1.59,1.18c-1.07,1.55-1.58,5.67-1.61,12.77,0,5.83-.77,12.5-2.58,22.63-1.77,9.8-2.94,14.35-5.73,21.82A86.78,86.78,0,0,1,188.35,110a96.45,96.45,0,0,1-10.26,12.78l-1,.92-2.15-1.42a56.15,56.15,0,0,1-9.62-9c-4.91-6.12-9.19-14.6-12.61-24.92-2-6-2.15-6.78-4.89-22.88-3.71-21.7-5.27-29.17-6.81-32.25C140.4,32,139.71,31.44,140,32.37Z" transform="translate(-34.78 -29.13)"/>
    <path class="cls-1" d="M202,36.08a115.63,115.63,0,0,1-6.78,38.18A158.57,158.57,0,0,1,184.53,98c-2.2,3.9-6.89,11.5-7.09,11.5s-4.35-5.42-6.81-9.07a152.62,152.62,0,0,1-9.28-16,127.31,127.31,0,0,1-6.5-15.25c-.21-.83-1.49-6.85-2.84-13.38-3.17-15.32-4.55-20.75-5.91-23-.72-1.18-1-1.15-.92.07,2,27.8,9.82,51.83,22.82,70.7,2.89,4.23,9.06,12,9.49,12a16.32,16.32,0,0,0,1.92-1.45c4.3-3.52,8.37-9.22,11.23-15.8,4.43-10.1,9.11-29.6,12.13-50.75.64-4.4,2.07-15.4,2.07-15.87a3.76,3.76,0,0,0-1.41-.13H202Z" transform="translate(-34.78 -29.13)"/>
    <path class="cls-1" d="M237.88,32.14l-1.35.08.2,1.55a171.68,171.68,0,0,1-.15,18.42c-.15,2-.64,6.88-1.08,10.88-3.81,36.32-6.06,52.72-9.56,69.75-1.08,5.12-2.1,9.32-2.15,8.75a26,26,0,0,1,.48-2.85c.54-2.73.54-3.75,0-1.48a117.91,117.91,0,0,1-3.91,11.85c-2.18,5.6-4.07,9.8-9.65,21.48-6.6,13.77-10.77,23.35-10.67,24.37a25.59,25.59,0,0,1-1,3.63c-3.07,9.33-5,20-6.09,33.3-1.1,13.75-1.69,63-1.23,103.93l.16,15.2,3.43-.1a29.43,29.43,0,0,0,3.5-.23c.05-.05,0-3.7-.26-8.1-1.35-31.67-1-64.1.82-88.25,1.54-19.95,5.33-49,7.19-55.25.92-3.15,2.41-6.6,6.19-14.58,3.66-7.75,4.58-10,6.4-15.55,10.44-32.2,16.32-66.65,19.09-111.75.48-8.17,1.2-24.1,1.1-24.67C239.26,32.14,239,32.07,237.88,32.14Z" transform="translate(-34.78 -29.13)"/>
    <path class="cls-1" d="M254.57,32.84c0,.55.31,23.15.7,50.23.56,41,.63,49.57.35,51.07-.18,1-.41,1.75-.53,1.68s-.29.27-.36.77c-.31,1.58-2.69,9.85-4.38,15.23-1.76,5.62-3.17,8.87-8.95,20.62-1.79,3.65-4.33,8.83-5.63,11.5s-3.3,6.68-4.43,8.88a81.43,81.43,0,0,0-7,18.2c-2.79,10.55-4.07,20.48-5.51,42.43-.23,3.37-.74,10.72-1.15,16.37C216,293.7,215.3,310.1,215,335.07c-.18,14-.15,15.05.26,15.45a2.21,2.21,0,0,0,3.48-1.52c0-2.83,1.58-34.15,2.17-43.55,2.71-41.48,4.76-60.1,9-81.75,3.38-17.33,5.12-22.63,13.23-40.38,7.49-16.4,10.23-24.2,11.56-32.78.21-1.32.41-2.47.46-2.52s.18.42.28,1.07a83.26,83.26,0,0,0,3.07,11.23c3.43,9.75,7.71,17.47,16.71,30.15,7.16,10.12,10.8,16.7,13.76,25.05,3.89,10.88,5.33,20.85,6,41.7.48,14.48-.46,32-2.33,43-.92,5.55-2.28,10.67-6,22.87-3.86,12.63-5.19,17.7-6.24,23.85-.72,4.08-.69,4.28.1,4.28a4,4,0,0,0,3-1.65c1-1.4,1.38-3.85,1.63-9.6l.23-5.15,1.95-5.6a149.35,149.35,0,0,0,4.91-17.7c5.66-25.45,7-49.2,4.48-80.7a76.83,76.83,0,0,0-7-27.36c-2.25-4.95-4.12-7.75-10.36-15.62-1.74-2.2-3.76-4.9-4.48-6a95.61,95.61,0,0,1-8.8-18.75c-.94-2.9-3.86-13.93-4.27-16.25-.1-.55-.23-.88-.28-.7A14.45,14.45,0,0,0,262,149c1,5.05.41,3.18-1.23-3.72-2.25-9.4-2-4-2.48-54.38-.36-35.25-.39-45.6-.13-48.25.67-7.67.05-10.25-2.63-10.67l-.93-.15Z" transform="translate(-34.78 -29.13)"/>
    <path class="cls-1" d="M291.93,62.62c-.26,47.37.41,64.6,3.43,86.45,1.71,12.27,3.07,18.92,7.29,35.25,6.45,25,9.08,40.15,10.36,59.88.36,5.25.36,24,0,30.87-.48,9.95-1.89,27.05-2.05,24.88-.07-1.25-.17-.63-.64,3.75-1.79,17.4-5.8,34.8-10.74,46.55-.15.4,0,.45,1.64.45,2.2,0,3-.35,4.22-1.83,2.43-2.9,4.58-10.32,6-20.92.3-2.13,1-7.38,1.66-11.63,1.94-13.3,3.09-24.57,3.73-36.87.36-6.75.34-25.9,0-34-.59-13.45-2-30-3.35-40.88a29.42,29.42,0,0,1-.36-4.88c.08-.47.05-.75-.05-.57s-.46-1.3-.8-3.5c-.66-4.23-1.76-10.4-4.4-24.55-2.68-14.35-4.78-27.88-4.55-29.1.05-.23.23.72.41,2.1.64,4.67,2.38,15.15,4.4,26.22,1.1,6.05,2.15,11.93,2.33,13s.38,1.82.41,1.62-1.23-8.82-2.84-19.12c-3.71-23.7-4.33-27.8-5.53-36.88-.69-5.12-1-6.92-1-5.87-.16,4.1-3.71-39.25-4.71-57.38-.69-12.07-.74-15.25-.38-21,.25-4.35.25-5.93,0-7.45-.51-3.2-1.61-4.83-3.53-5.2l-.79-.15ZM302,125.87c-.08.25-.13,0-.13-.43s.05-.67.13-.45A2.6,2.6,0,0,1,302,125.87ZM306.62,335c-.08.17-.13.05-.13-.3s.05-.48.13-.33A1.34,1.34,0,0,1,306.62,335Zm-.26,1c-.07.2-.15.12-.15-.15s.05-.43.13-.33A.49.49,0,0,1,306.36,336Zm-1.17,4.7c-1.05,3.75-2.56,8.1-2.74,7.92a20,20,0,0,1,.87-2.95c.54-1.57,1.38-4.27,1.87-6a15.59,15.59,0,0,1,.94-2.95A30,30,0,0,1,305.19,340.7Z" transform="translate(-34.78 -29.13)"/>
    <path class="cls-1" d="M366.31,33.76c-.05,7.8-.54,32.95-.77,37.35-.74,16-2,31.1-3.32,40.67-.82,5.73-2.61,15.81-4.61,25.81-1,5-2.23,11.2-2.71,13.75-1,5.12-1.18,6-1,4.12s4.86-27.65,6.24-34.47c.51-2.5.59-3.08.41-2.88s-2.25,9.48-3.84,17.1a406.37,406.37,0,0,0-6.55,42,284.55,284.55,0,0,0-.54,30.9c1,15,3.25,25.68,8.78,42.23,7.39,22.17,10.95,38,12,53.37.36,5.5.31,10-.25,22.25-.67,14.46-1,21.88-1,23.88l-.08,1.63h1.69c1.43,0,1.79-.1,2.35-.6a3.34,3.34,0,0,0,.85-1.5c.1-.5.18-3.73.2-7.15s.13-13.41.23-22.13c.33-24.25-.61-42-3.32-62.63-1-7.62-1.72-10.5-5.22-21.12-3.18-9.6-4.07-12.93-5.09-19.13-2.74-16.27-3.18-35.6-1.31-57.25,1-10.75,1.84-18.27,5.48-45.4,2.22-16.55,3.25-25.75,4.47-40,1.36-15.6,1.67-21.17,1.49-28.12-.16-6-.54-9-1.49-11.48-.53-1.45-1.71-2.65-2.56-2.65C366.39,32.33,366.31,32.53,366.31,33.76ZM353.7,157.24c-.08.18-.13,0-.13-.3s.05-.47.13-.32A1.3,1.3,0,0,1,353.7,157.24Zm-3.84,28.25c-.08.2-.16.13-.16-.15s.06-.42.13-.32A.49.49,0,0,1,349.86,185.49Z" transform="translate(-34.78 -29.13)"/>
    <path class="cls-1" d="M384.07,53.86c0,21.67-.15,27.17-.89,33.55-.77,6.75-2.77,14-7.88,28.5a251.22,251.22,0,0,0-8.67,30.25,153.76,153.76,0,0,0-3.23,23.25c-.4,5.75-.4,24.65,0,29.5,1.38,16.1,3.68,25.37,9,36.6a102.16,102.16,0,0,1,4.64,10.4c3.48,9.43,5.36,19.48,6.12,32.75.13,2.33.42,11.4.62,20.13,1.31,52.87,1.24,50.72,1.78,51.45a2,2,0,0,0,1,.75c.59.1,2-.38,2-.68.17-6.62.17-59.45,0-64.52-.52-14.85-1.66-26.75-3.24-34.48-.27-1.32-.66-3.42-.84-4.7-.69-4.55-2.12-9.22-4.89-15.83a182.35,182.35,0,0,1-9-28.25c-2-9.42-2.08-19.35-.25-31,1.43-9,3.48-17.12,8.91-35.37,6.23-20.93,7.73-28.5,8.87-44.25.39-5.3.39-24.18,0-36.75-.15-5.1-.3-12.48-.35-16.43l-.05-7.2h-3.7Zm-2.67,50.36a45.56,45.56,0,0,1-2,7.15,29.34,29.34,0,0,1,.8-3.58c.48-1.92,1-3.9,1.07-4.42s.21-.9.28-.85A6.78,6.78,0,0,1,381.4,104.22Z" transform="translate(-34.78 -29.13)"/>
    <path class="cls-1" d="M393.91,32.12c-.12.92.11,27.85.31,35.7.33,13.77,1.2,35.7,1.51,38.87a51.81,51.81,0,0,0,1.79,9.7c1,3.28,1.31,4.08,4.53,10.43,1.53,3,3.22,6.5,3.76,7.75,1.79,4.15,3.22,9,3.22,10.87a1.25,1.25,0,0,0,.23.85c.13.08.23-.72.26-1.8s.15-4.07.31-6.67a63.68,63.68,0,0,0-.41-13.83,34.54,34.54,0,0,0-3.2-8.8c-3-5.9-4.12-9.15-4.45-12.62-.1-1-.69-10.43-1.36-21-.94-15-1.17-20.55-1.15-25.23.13-13.62-.87-21-3.12-23.3C395.4,32.29,394,31.69,393.91,32.12Z" transform="translate(-34.78 -29.13)"/>
    <path class="cls-1" d="M404.58,36.83c-.89,27.78-.69,36.33,1.15,46.08.87,4.65,2.84,11.55,3.46,12.1.1.07.1-7.63,0-17.1-.13-14.25-.1-18.08.23-22,1.15-14.2.59-21-1.92-23.43a2.44,2.44,0,0,0-1.84-.95h-.9Z" transform="translate(-34.78 -29.13)"/>
    <path class="cls-1" d="M157.57,34.09c-.13,5.55,1.58,15.6,3.86,22.6A92.2,92.2,0,0,0,176,83.54l.59.73L178.44,81a131,131,0,0,0,7-14.1,59.91,59.91,0,0,0,2.95-9.42c.1-.68,0-.53-.26.42a97,97,0,0,1-3.28,9.45A38,38,0,0,1,182,72.32c-3,4.5-3.88,6-4.55,7.52l-.61,1.4-.57-1.47c-.69-1.83-3.3-6-7.65-12.2a75.35,75.35,0,0,1-4.14-6.45q-4-8.59-6.6-26.68l-.23-1.62Z" transform="translate(-34.78 -29.13)"/>
    <path class="cls-1" d="M157.29,99c0,.28,4,7.6,5.52,10a53.79,53.79,0,0,0,4.61,6.47c.15,0,0-.3-1-1.75-1.23-1.7-5-7.77-6.78-11C157.93,99.74,157.29,98.72,157.29,99Z" transform="translate(-34.78 -29.13)"/>
    <path class="cls-1" d="M91.18,116c.1,12.55,0,14.15-.41,18.23-.62,5.28-.64,7.55-.16,9.35.82,3,2.56,4.3,5.68,4.3H98l3.5,2.3a29.58,29.58,0,0,1,9.16,8.7c3.56,5.13,5.55,9.33,10.08,21.15,6.22,16.23,8.88,27.28,13.53,56.23,2.15,13.25,3.13,20.1,4,28,.72,6.57,1.13,11.3,1.82,21.12.15,2.15.71,17.85,1.17,32.68.26,8.05.26,11.4,0,16.62-.46,9.48.06,13.23,2.15,15.38.92.92,1.21,1.07,2.1,1.07s1.05,0,1.2-.95c.23-1.47.18-26.17-.1-34.55a651.25,651.25,0,0,0-8.21-83.5c-3.12-19.67-6-31.87-10.34-44.47-7.37-21.2-13-31.7-22.26-41.63-2.84-3-3.09-3.37-4.73-6.72a99.49,99.49,0,0,1-9.72-34.68C91.13,103,91.1,106.79,91.18,116Z" transform="translate(-34.78 -29.13)"/>
    <path class="cls-1" d="M93.1,113.87a92.55,92.55,0,0,0,2.07,9.32,58.71,58.71,0,0,0,4,11.13c1.87,3.82,3,5.5,7.17,10.72a124.24,124.24,0,0,1,9.18,12.65A92.82,92.82,0,0,1,121.6,169a5.22,5.22,0,0,0,.82,1.57c.2-.17-2-5.47-3.89-9.3A73.86,73.86,0,0,0,105,141.69c-5.12-5.47-7.32-10-10-20.55-.76-3.07-1.5-6-1.63-6.57S93.12,113.72,93.1,113.87Z" transform="translate(-34.78 -29.13)"/>
    <path class="cls-1" d="M352,119.34c0,.28.07.35.15.15a.5.5,0,0,0,0-.47C352.06,118.92,352,119.07,352,119.34Z" transform="translate(-34.78 -29.13)"/>
    <path class="cls-1" d="M390.05,129a143.39,143.39,0,0,0-8.9,21.07c-1.79,5.4-4.53,15.58-4.25,15.83.05,0,1-2.53,2.07-5.73,5.25-15.37,9-24,12.72-29.4l.74-1.07,1.33,1.07c4,3.3,8.21,10.68,9.67,17,.64,2.83.51.9-.15-2.4-1.95-9.52-4.74-15.77-9.06-20.25l-1.46-1.52Z" transform="translate(-34.78 -29.13)"/>
    <path class="cls-1" d="M206.05,137.82c-.23.65-.18.8.13.3.15-.25.23-.53.15-.58S206.15,137.59,206.05,137.82Z" transform="translate(-34.78 -29.13)"/>
    <path class="cls-1" d="M205.54,139.07c-.23.65-.18.8.13.3.15-.25.23-.53.15-.58S205.64,138.84,205.54,139.07Z" transform="translate(-34.78 -29.13)"/>
    <path class="cls-1" d="M91.18,152.34a75.9,75.9,0,0,0-.77,9.73,6.87,6.87,0,0,0,.38,2.67,24.52,24.52,0,0,0,3.69,3.13c5.6,4.15,7.77,6.4,11.82,12.32a80.73,80.73,0,0,1,8.34,15.38A256.21,256.21,0,0,1,123,222.7c4.12,17.45,5.63,29.62,7.73,62.75.43,6.67,1.3,20.05,1.94,29.75.85,12.5,1.21,19.62,1.23,24.5.05,5.72.13,7.1.51,8.2a4.11,4.11,0,0,0,2.54,2.9l.74.17-.16-2.32c-.1-1.28-.38-7-.66-12.83-.87-17.72-1.28-25.7-1.66-32.87-1.92-34.55-4.71-60.33-8.6-79.63-.41-2.07-1.1-5.72-1.51-8.12-1.2-7-3.48-17.21-3.74-16.93a8.06,8.06,0,0,0,.39,2.07c.82,3.2,2.38,10.83,2.28,11.13-.06.15-.31-.6-.57-1.67a271.52,271.52,0,0,0-9.39-29,97,97,0,0,0-5.37-10.8c-.46-.75-.66-1.28-.46-1.15s.08-.08-.28-.43a24.24,24.24,0,0,1-2.2-2.72A68.93,68.93,0,0,0,93.3,153.44C91.74,152.24,91.3,152,91.18,152.34Z" transform="translate(-34.78 -29.13)"/>
    <path class="cls-1" d="M404.74,155.07c0,.4.05.55.12.3a1.58,1.58,0,0,0,0-.75C404.79,154.47,404.74,154.64,404.74,155.07Z" transform="translate(-34.78 -29.13)"/>
    <path class="cls-1" d="M405.09,157.57c.08,1,.31,2.87.49,4.25l.36,2.5-.16-2.1c-.07-1.15-.28-3.05-.48-4.25C405,155.84,405,155.84,405.09,157.57Z" transform="translate(-34.78 -29.13)"/>
    <path class="cls-1" d="M406,165.19c0,.35.05.48.12.3a1.3,1.3,0,0,0,0-.62C406.07,164.72,406,164.84,406,165.19Z" transform="translate(-34.78 -29.13)"/>
    <path class="cls-1" d="M110.13,171.82c.93,1.5,2.51,4.37,3.54,6.37s2,4,2.25,4.5.38.68.28.25c-.49-2-5.66-11.45-7.27-13.27C108.65,169.34,109.19,170.29,110.13,171.82Z" transform="translate(-34.78 -29.13)"/>
    <path class="cls-1" d="M254.31,179.4a8.32,8.32,0,0,1-1.64,1.22,7.29,7.29,0,0,0-1.89,1.73c-1,1.42-5.55,9.22-7.27,12.52-5.29,10.3-9,23.68-11.3,41-.67,5-3.28,29.83-3.71,35.61-1.23,15.52-1.15,34.45.23,65.22.28,6.1.51,11.7.51,12.45v1.33h1.94c1.51,0,1.92-.08,1.82-.33a62.74,62.74,0,0,1-1.84-8.5c-.54-4.17-.49-13.9.13-22.8.25-4,.61-9.55.76-12.37.62-11.7,2.1-34.65,2.82-43.38,1.92-23.25,6.14-41.43,13.3-57.25,2.12-4.75,7.24-14.1,7.7-14.13s6.81,7.5,9.57,11.25c11.26,15.25,17.27,30.75,19.62,50.63.21,1.75.34,6,.34,11.75a129.67,129.67,0,0,1-2.08,25c-1.61,10.23-6.09,31.25-7.93,37.23a76.46,76.46,0,0,0-2.5,10.27l-.16,1.25.62-1.62A10.94,10.94,0,0,1,274,336c0,.07-.26,1.52-.59,3.25a113.22,113.22,0,0,0-1.85,11.7,2.65,2.65,0,0,0,1.16-.15c3-.9,4.06-3.48,5.52-13.68,1-7,.92-6.67,2.51-10.62,4.81-12.08,7.6-32.43,8.62-62.88.74-21.8-1.51-38.23-7.09-52-1.22-3-4.81-10.38-6.57-13.5-4.35-7.75-10.31-13.83-16.78-17.1a31.89,31.89,0,0,1-3-1.7,6.25,6.25,0,0,0-.92-.58A3.42,3.42,0,0,0,254.31,179.4Zm9.43,5.44a40.93,40.93,0,0,1,8.29,9.48c.59.92.28.65-1.15-1.13-.64-.75-2-2.3-3-3.42a72.2,72.2,0,0,0-7.47-6.83C259.34,182,262.05,183.59,263.74,184.84Z" transform="translate(-34.78 -29.13)"/>
    <path class="cls-1" d="M90.49,183.72a1.75,1.75,0,0,1,.25,1.43A5.93,5.93,0,0,0,91,189c.69,1.47,2.22,3,5.83,5.85,1.72,1.35,3.69,3,4.38,3.72,2.73,2.7,5.68,7.73,8.34,14.25,4.91,12,6.83,18.8,8.46,29.83,1.1,7.65,2.28,21,2.74,31.53.28,7.05,0,19-.59,28.9-.12,2.12-.35,8.6-.48,14.37s-.39,11.28-.54,12.25a23.45,23.45,0,0,0-.28,2.55c0,.45-.1.75-.23.68s-.23.15-.23.5a30.76,30.76,0,0,1-1.43,5.77c-1.41,4.35-3.69,7.88-6.4,9.83a9.29,9.29,0,0,1-1.66,1,.22.22,0,0,0-.23.22c0,.15,2.81.25,7,.28l7,0,.15-.82c.72-4,1.74-13.63,2.38-22.45.54-7.65.61-34.35.13-43.63-2-38.7-2.54-44.38-4.53-55-.82-4.3-3.22-13.8-4.38-17.23-4.52-13.55-13.3-23.25-25.48-28.22l-1-.4Zm3.07,2.1a30.1,30.1,0,0,1,14.71,11.5c1.35,2,3.89,6.37,3.66,6.37a11.59,11.59,0,0,1-1.1-1.57,43,43,0,0,0-6.73-8.2A40.27,40.27,0,0,0,94,186.54a26.33,26.33,0,0,1-2.43-1.35C91.64,185.19,92.53,185.47,93.56,185.82ZM117.81,338.5c-.08.2-.15.12-.15-.15s0-.43.12-.33A.49.49,0,0,1,117.81,338.5Zm-.72,2.37c-1.2,3.58-3.12,6.93-4.83,8.45-.59.53-.46.28.48-.87A31.65,31.65,0,0,0,117,340.4c.25-.8.48-1.4.56-1.35A6.9,6.9,0,0,1,117.09,340.87Z" transform="translate(-34.78 -29.13)"/>
    <path class="cls-1" d="M116.35,183.82a1.68,1.68,0,0,0,.26.62c.13.2.25.25.25.13a1.5,1.5,0,0,0-.25-.63C116.48,183.74,116.35,183.67,116.35,183.82Z" transform="translate(-34.78 -29.13)"/>
    <path class="cls-1" d="M311.35,185.94c0,.35.06.48.13.3a1.3,1.3,0,0,0,0-.62C311.41,185.47,311.35,185.59,311.35,185.94Z" transform="translate(-34.78 -29.13)"/>
    <path class="cls-1" d="M197.1,202a4.82,4.82,0,0,0-.34,1.62,5.53,5.53,0,0,0,.54-1.42,6.76,6.76,0,0,0,.33-1.65A4.61,4.61,0,0,0,197.1,202Z" transform="translate(-34.78 -29.13)"/>
    <path class="cls-1" d="M313.66,201.07c0,.4,0,.55.12.3a1.58,1.58,0,0,0,0-.75C313.71,200.47,313.66,200.64,313.66,201.07Z" transform="translate(-34.78 -29.13)"/>
    <path class="cls-1" d="M313.89,202.32c0,.27.2,2.17.46,4.25s.79,6.63,1.15,10.13c.92,9.1.82,8.32.87,7.1.08-1.4-.59-8.08-1.51-15.35C314.12,202.52,313.91,201.27,313.89,202.32Z" transform="translate(-34.78 -29.13)"/>
    <path class="cls-1" d="M90.39,204.82c0,.82,0,3.93-.16,6.88l-.18,5.37,1.59,4.38c8.19,22.62,12.13,40.75,13.3,61.25.82,14.52-.28,24.52-4.24,38.15-2.18,7.55-2.77,9-4.84,12.6-4.14,7.1-5,9.1-5.17,12.87-.15,2.9.16,3.85,1.44,4.38,2.4.95,7.49-2.75,10.18-7.43,3.91-6.87,6.42-15.32,7.8-26.45.44-3.52.44-23.3,0-30-.18-2.62-.43-10.32-.56-17.12s-.36-14.3-.51-16.63c-1.05-16.57-3.56-27.32-8.6-36.85a42,42,0,0,0-7.6-10.4l-2.48-2.5Zm3.52,3.88c1.33,1.4,3.15,3.75,2.92,3.75a7.66,7.66,0,0,1-1-1.2c-.51-.65-1.71-1.95-2.66-2.9s-1.48-1.61-1.18-1.46A12.36,12.36,0,0,1,93.91,208.7Z" transform="translate(-34.78 -29.13)"/>
    <path class="cls-1" d="M196.46,204.34c0,.28.07.35.15.15a.47.47,0,0,0,0-.47C196.51,203.92,196.43,204.07,196.46,204.34Z" transform="translate(-34.78 -29.13)"/>
    <path class="cls-1" d="M408.46,210.4c-4.74,15.92-8.37,33-9.49,44.42-.16,1.5-.31,3-.39,3.38-.77,4-2.53,22.47-3.2,33.62-.79,13.5-1.17,35.73-.84,48.75.2,7.88.23,8,.84,9.13.41.7.85,1.15,1.21,1.2s.56-.08.69-1.25c.07-.73.2-7.58.25-15.2.21-20.15.69-31.65,2-45.63,2-21.52,2.89-27.37,6-37.87.74-2.55,1.61-5.75,1.92-7.13,1.46-6.6,2.12-16.22,2-28.67l-.07-7.68Z" transform="translate(-34.78 -29.13)"/>
    <path class="cls-1" d="M253.82,212.57c-3.15,4-4.68,7.23-7.34,15.33-4.79,14.57-6.12,23.2-7.47,48.75-1,19.1-1,27,.38,50,.33,5.78.69,12.58.77,15.13s.2,5.55.28,6.7l.15,2h3.66l.05-7.73a188.18,188.18,0,0,1,1.13-21c.46-5.15.61-6,1.2-7.35s.69-1.78.69-4.13c0-2.87-.41-4.55-2-8.4a26,26,0,0,1-1.51-6.5A104.62,104.62,0,0,1,247,250.15a84.81,84.81,0,0,1,8.24-18l1.1-1.72,1.81,2.47c12.41,17,17.15,35.21,13.87,53.41a56.72,56.72,0,0,1-2.66,9.62c-.46,1.08-1.92,4.15-3.22,6.83-4.38,9-6,13.15-7.19,18.12-.57,2.43-.59,2.88-.62,14.75,0,13.9-.07,13.33,2,14.35a8.42,8.42,0,0,0,3.56.73l2.35.1-.1-5.45c-.15-9.45.62-14.23,5.09-31.6,4.53-17.73,5.12-21.2,5.3-31.6.54-30.51-5.53-52.28-19.32-69.36a20.43,20.43,0,0,0-1.81-2A11.35,11.35,0,0,0,253.82,212.57Zm-7.53,99.1a11.1,11.1,0,0,1-.07,2.25,31.51,31.51,0,0,1-.21-3.47c-.1-2.05-.07-2.93.05-2.25A22.63,22.63,0,0,1,246.29,311.67Z" transform="translate(-34.78 -29.13)"/>
    <path class="cls-1" d="M316.5,226.2c0,.62.05.87.1.55a4.27,4.27,0,0,0,0-1.13C316.55,225.32,316.5,225.57,316.5,226.2Z" transform="translate(-34.78 -29.13)"/>
    <path class="cls-1" d="M91,247.82c.23,1.43.18,70.9,0,71.65-.11.25-.08.48,0,.48s1.3-3.25,2.53-7.75a109.82,109.82,0,0,0,3.15-40.88,127.53,127.53,0,0,0-4.35-20.72C91.15,246.87,90.56,245.7,91,247.82Z" transform="translate(-34.78 -29.13)"/>
    <path class="cls-1" d="M256.63,250.52a22,22,0,0,0-4,9c-.15,1-.15,1,.36-.27a77.15,77.15,0,0,1,3.63-7.05l.52-.83,1.12,1.55a33.5,33.5,0,0,1,5.86,15.45c.31,2.5.33,2.55.36,1,.07-5.25-2.33-12.63-5.94-18.1l-1.12-1.68Z" transform="translate(-34.78 -29.13)"/>
    <path class="cls-1" d="M408.45,279.5c-2.31,4-3.51,7.77-5.15,16.07-2.73,13.7-3.14,20.25-2.71,41.7.15,7.45.31,13.55.36,13.6.28.28,1.53-.35,2.05-1,1.22-1.58,1.76-4.28,2.07-10.15.15-2.7.61-6.88,2.56-23,.71-5.95,1.15-12.18,1.4-21,.26-9.1.44-17.75.36-17.75S408.93,278.65,408.45,279.5Z" transform="translate(-34.78 -29.13)"/>
    <path class="cls-1" d="M252.48,322.07a38.39,38.39,0,0,0-1.94,7.5,137.19,137.19,0,0,0-.51,18.7l.18,2.65.59-.27c1.33-.58,2.09-3.25,2.48-8.58S253,320.82,252.48,322.07Z" transform="translate(-34.78 -29.13)"/>
  </g>
  <rect class="cls-1" x="247.66" y="191.65" width="2.5" height="322.14" transform="translate(566.84 74.68) rotate(90)"/>
  <rect class="cls-1" x="247.67" y="-130.7" width="2.5" height="322.16" transform="translate(244.52 -247.67) rotate(90)"/>
  <rect class="cls-1" x="87.84" y="31.63" width="2.5" height="319.83" transform="translate(143.39 353.96) rotate(-180)"/>
  <rect class="cls-1" x="409.97" y="29.13" width="2.5" height="324.83" transform="translate(787.66 353.97) rotate(-180)"/>
</svg>
